# Blender v2.79 (sub 0) OBJ File: ''
# www.blender.org
mtllib Cube.mtl
o Cube_Cube.001
v -0.566711 -0.566711 -0.566711
v -0.566711 0.566711 -0.566711
v 0.566711 -0.566711 -0.566711
v 0.566711 0.566711 -0.566711
v -0.566711 -0.566711 -0.132685
v -0.566711 0.566711 -0.132685
v 0.566711 0.566711 -0.131747
v 0.566711 -0.566711 -0.131747
vn -0.0008 -0.0000 1.0000
vn 0.0000 0.0000 -1.0000
vn 1.0000 0.0000 0.0000
vn 0.0000 1.0000 0.0000
vn -1.0000 0.0000 0.0000
vn 0.0000 -1.0000 0.0000
usemtl None
s off
f 5//1 8//1 7//1 6//1
f 2//2 4//2 3//2 1//2
f 4//3 7//3 8//3 3//3
f 2//4 6//4 7//4 4//4
f 1//5 5//5 6//5 2//5
f 3//6 8//6 5//6 1//6
