# Blender v2.79 (sub 0) OBJ File: ''
# www.blender.org
mtllib aim-cloth.mtl
o /ambf/env/cloth/aim-cloth_aim-cloth2_aim-cloth_Plane
v 0.484989 -0.484989 0.000000
v 0.404789 -0.442994 0.000000
v 0.484989 -0.394053 0.000000
v 0.027786 0.063150 0.000000
v 0.484989 -0.032838 0.000000
v 0.010104 -0.484989 0.000000
v 0.034732 -0.424365 0.000000
v -0.196395 -0.017682 0.000000
v -0.258282 0.330746 0.000000
v -0.232390 -0.484989 0.000000
v 0.232390 0.239968 0.000000
v 0.269017 0.292382 0.000000
v 0.204605 0.333430 0.000000
v 0.484989 0.232390 0.000000
v 0.431943 0.300592 0.000000
v 0.212182 -0.239968 0.000000
v 0.260176 -0.181871 0.000000
v 0.484989 -0.212182 0.000000
v 0.270280 -0.484989 0.000000
v 0.090935 -0.484989 0.000000
v 0.305644 -0.136403 0.000000
v -0.173030 0.435732 0.000000
v -0.064097 0.419945 0.000000
v -0.351112 0.358690 0.000000
v -0.270280 0.412367 0.000000
v 0.160400 0.097250 0.000000
v 0.085884 0.363742 0.000000
v 0.317011 0.434469 0.000000
v 0.449625 0.394053 0.000000
v 0.484989 0.394053 0.000000
v 0.421208 0.213445 0.000000
v -0.372583 -0.095987 0.000000
v -0.394053 -0.484989 0.000000
v -0.374477 -0.418050 0.000000
v -0.130088 -0.157874 0.000000
v -0.336587 0.223234 0.000000
v -0.434469 0.272806 0.000000
v -0.425628 0.080832 0.000000
v -0.116195 -0.346060 0.000000
v -0.151559 -0.484989 0.000000
v 0.153453 0.012630 0.000000
v 0.394053 -0.373846 0.000000
v -0.484989 0.199553 0.000000
v -0.484989 0.381424 0.000000
v -0.484989 -0.293014 0.000000
v -0.484989 -0.212182 0.000000
v 0.242494 0.484989 0.000000
v 0.409209 0.484989 0.000000
v 0.333430 0.484989 0.000000
v -0.333430 0.484989 0.000000
v -0.075780 0.484989 0.000000
v -0.151559 0.484989 0.000000
v -0.278490 -0.082726 0.000000
v -0.119984 0.346060 0.000000
v 0.154085 0.431312 0.000000
v 0.131351 -0.209657 0.000000
v -0.322063 -0.250704 0.000000
v -0.261123 0.041047 0.000000
v 0.054309 -0.315748 0.000000
v 0.454677 -0.335956 0.000000
v -0.434469 -0.023365 0.000000
v -0.250072 0.484989 0.000000
v 0.224812 0.025260 0.000000
v 0.392159 -0.301855 0.000000
v 0.484989 -0.310696 0.000000
v -0.210920 -0.454677 0.000000
v 0.454677 -0.090935 0.000000
v 0.353638 -0.484989 0.000000
v -0.313222 -0.484989 0.000000
v 0.344165 0.112406 0.000000
v -0.262071 -0.272806 0.000000
v -0.349849 -0.007578 0.000000
v -0.484989 0.080832 0.000000
v -0.119353 -0.054940 0.000000
v -0.020208 0.337219 0.000000
v 0.107354 -0.141455 0.000000
v -0.365005 0.289856 0.000000
v -0.194501 0.363742 0.000000
v -0.335956 0.434469 0.000000
v 0.416156 -0.157242 0.000000
v -0.484989 -0.128825 0.000000
v 0.073254 0.125036 0.000000
v -0.225444 -0.182818 0.000000
v 0.394053 -0.053046 0.000000
v 0.131351 0.484989 0.000000
v -0.074675 -0.447415 0.000000
v -0.173661 0.107354 0.000000
v 0.047994 0.426260 0.000000
v -0.037890 0.039784 0.000000
v 0.152822 -0.394053 0.000000
v -0.484989 0.293014 0.000000
v 0.484989 -0.131351 0.000000
v -0.412998 0.433206 0.000000
v 0.291751 0.022734 0.000000
v 0.459729 -0.022734 0.000000
v 0.210288 0.173030 0.000000
v 0.251335 -0.391528 0.000000
v -0.131983 0.056835 0.000000
v -0.032680 0.224812 0.000000
v 0.484989 0.313222 0.000000
v 0.103565 0.060624 0.000000
v -0.198290 -0.320800 0.000000
v -0.450256 -0.139561 0.000000
v 0.484989 0.050520 0.000000
v -0.150296 0.179976 0.000000
v -0.484989 -0.027786 0.000000
v 0.219760 -0.313222 0.000000
v 0.448994 0.130088 0.000000
v 0.444573 -0.252598 0.000000
v -0.443626 -0.369425 0.000000
v -0.240600 0.214077 0.000000
v 0.484989 0.149033 0.000000
v 0.055572 0.484989 0.000000
v -0.070728 -0.484989 0.000000
v -0.094093 0.281647 0.000000
v 0.045468 0.210920 0.000000
v 0.011367 0.145244 0.000000
v -0.296329 -0.345744 0.000000
v 0.171767 -0.484989 0.000000
v -0.418366 -0.244389 0.000000
v 0.241231 0.098513 0.000000
v 0.129457 0.313222 0.000000
v 0.366268 0.030312 0.000000
v 0.195132 -0.144928 0.000000
v -0.031575 -0.221339 0.000000
v 0.129772 0.203973 0.000000
v -0.054309 0.151559 0.000000
v -0.414261 0.484989 0.000000
v 0.293014 0.357427 0.000000
v 0.334061 0.287962 0.000000
v 0.383950 0.370057 0.000000
v 0.409209 0.454677 0.000000
v 0.484989 0.484989 0.000000
v -0.184397 -0.111143 0.000000
v -0.484989 -0.484989 0.000000
v 0.231127 0.426891 0.000000
v -0.484989 -0.386476 0.000000
v -0.266491 0.127562 0.000000
v 0.051783 -0.222286 0.000000
v -0.010104 0.484989 0.000000
v 0.076569 -0.030312 0.000000
v 0.200184 -0.044836 0.000000
v -0.175556 0.262702 0.000000
v -0.168294 -0.396895 0.000000
v -0.484989 0.484989 0.000000
v -0.022103 -0.031575 0.000000
v 0.442679 0.053046 0.000000
v -0.350480 -0.163557 0.000000
v 0.011367 -0.121247 0.000000
v 0.310696 -0.061887 0.000000
v 0.316695 -0.239968 0.000000
v 0.299960 0.187238 0.000000
v -0.070728 -0.111143 0.000000
v -0.431943 0.354901 0.000000
v -0.420892 0.155348 0.000000
v -0.049257 -0.321431 0.000000
v 0.295540 -0.443942 0.000000
v 0.304065 -0.327115 0.000000
v -0.351112 0.139561 0.000000
v -0.373846 -0.303118 0.000000
v 0.051467 0.285120 0.000000
v 0.118721 -0.296487 0.000000
v 0.128825 -0.454677 0.000000
v 0.214708 -0.448362 0.000000
v -0.292382 -0.432575 0.000000
v -0.166715 -0.250388 0.000000
vt 0.478117 0.026963
vt 0.562127 0.026991
vt 0.564658 0.069236
vt 0.022257 0.500944
vt 0.083365 0.476375
vt 0.060097 0.585602
vt 0.236008 0.772763
vt 0.258635 0.677565
vt 0.326714 0.736225
vt 0.022173 0.743057
vt 0.052730 0.721630
vt 0.074977 0.802973
vt 0.737606 0.543905
vt 0.723631 0.465876
vt 0.798415 0.459912
vt 0.465925 0.311315
vt 0.534057 0.219916
vt 0.536579 0.286750
vt 0.113955 0.358482
vt 0.212274 0.392563
vt 0.373677 0.205990
vt 0.457719 0.117749
vt 0.448780 0.200972
vt 0.352713 0.095645
vt 0.844291 0.769188
vt 0.877567 0.705519
vt 0.926547 0.781196
vt 0.850897 0.531492
vt 0.940660 0.463428
vt 0.847156 0.307032
vt 0.871372 0.218770
vt 0.941360 0.280583
vt 0.351887 0.641028
vt 0.399004 0.581778
vt 0.455631 0.630345
vt 0.398965 0.695267
vt 0.427572 0.789222
vt 0.872421 0.861881
vt 0.947500 0.923696
vt 0.868574 0.942585
vt 0.022202 0.662353
vt 0.110979 0.679091
vt 0.114071 0.026839
vt 0.198081 0.026867
vt 0.172613 0.057123
vt 0.022377 0.157952
vt 0.064718 0.106895
vt 0.063725 0.215972
vt 0.134405 0.117638
vt 0.206959 0.119554
vt 0.572178 0.407818
vt 0.523825 0.357992
vt 0.609111 0.351086
vt 0.661413 0.027026
vt 0.745423 0.027054
vt 0.726308 0.090728
vt 0.162231 0.627092
vt 0.187076 0.560268
vt 0.568277 0.642994
vt 0.619178 0.684624
vt 0.552321 0.771926
vt 0.651575 0.861806
vt 0.735909 0.847334
vt 0.667462 0.931482
vt 0.022117 0.904465
vt 0.089587 0.884943
vt 0.022085 0.995257
vt 0.162487 0.806943
vt 0.258263 0.832668
vt 0.610412 0.270382
vt 0.365047 0.316324
vt 0.419553 0.057207
vt 0.022286 0.420240
vt 0.287033 0.459422
vt 0.368517 0.403965
vt 0.388850 0.499809
vt 0.022313 0.339536
vt 0.059242 0.296675
vt 0.052848 0.382420
vt 0.297366 0.026901
vt 0.378832 0.026929
vt 0.637084 0.438104
vt 0.716660 0.381702
vt 0.479213 0.533256
vt 0.551126 0.549043
vt 0.022423 0.026807
vt 0.574697 0.483479
vt 0.657429 0.499900
vt 0.663771 0.565475
vt 0.692377 0.661320
vt 0.480520 0.434740
vt 0.642307 0.062958
vt 0.624450 0.167615
vt 0.022230 0.581648
vt 0.592360 0.936185
vt 0.503284 0.860494
vt 0.639512 0.777315
vt 0.803044 0.875729
vt 0.346082 0.861071
vt 0.287958 0.542648
vt 0.022146 0.823761
vt 0.264594 0.928823
vt 0.699853 0.211775
vt 0.801378 0.177763
vt 0.805810 0.242706
vt 0.814141 0.080040
vt 0.826888 0.027082
vt 0.908340 0.062419
vt 0.908352 0.027110
vt 0.884133 0.127982
vt 0.775743 0.686569
vt 0.934256 0.575340
vt 0.859773 0.631114
vt 0.327838 0.251370
vt 0.269304 0.194920
vt 0.116535 0.260125
vt 0.299789 0.379983
vt 0.269268 0.299268
vt 0.192840 0.456868
vt 0.195443 0.291677
vt 0.541720 0.145519
vt 0.488291 0.052186
vt 0.256620 0.067240
vt 0.950129 0.684107
vt 0.999779 0.662687
vt 0.999745 0.761045
vt 0.999828 0.521454
vt 0.999806 0.587027
vt 0.794864 0.605241
vt 0.948800 0.846775
vt 0.999688 0.924975
vt 0.999717 0.844271
vt 0.999663 0.995591
vt 0.752973 0.279257
vt 0.685502 0.301302
vt 0.826764 0.382055
vt 0.877665 0.425577
vt 0.949027 0.194837
vt 0.999947 0.178462
vt 0.999916 0.269254
vt 0.969425 0.102792
vt 1.000001 0.027142
vt 0.999974 0.102802
vt 0.999877 0.380222
vt 0.999851 0.455882
vt 0.945788 0.357505
vt 0.370232 0.960699
vt 0.381040 0.995380
vt 0.297029 0.995351
vt 0.414174 0.883162
vt 0.487343 0.944976
vt 0.482871 0.995414
vt 0.205420 0.884352
vt 0.138569 0.953999
vt 0.121371 0.995291
vt 0.215564 0.995324
vt 0.493154 0.707279
vt 0.785836 0.945078
vt 0.806185 0.995525
vt 0.895287 0.995556
vt 0.711991 0.995493
vt 0.592339 0.995452
vt 0.726714 0.751494
vt 0.187661 0.709066
vt 0.181471 0.207500
vt 0.022348 0.241178
vn 0.0000 0.0000 1.0000
usemtl Material.001
s 1
f 5/1/1 104/2/1 147/3/1
f 6/4/1 7/5/1 86/6/1
f 71/7/1 166/8/1 83/9/1
f 10/10/1 66/11/1 165/12/1
f 99/13/1 116/14/1 161/15/1
f 142/16/1 94/17/1 63/18/1
f 90/19/1 162/20/1 7/5/1
f 21/21/1 84/22/1 150/23/1
f 21/21/1 80/24/1 84/22/1
f 9/25/1 78/26/1 25/27/1
f 75/28/1 161/15/1 88/29/1
f 13/30/1 129/31/1 136/32/1
f 35/33/1 153/34/1 74/35/1
f 83/9/1 134/36/1 53/37/1
f 24/38/1 93/39/1 154/40/1
f 40/41/1 86/6/1 144/42/1
f 3/43/1 65/44/1 60/45/1
f 68/46/1 2/47/1 157/48/1
f 2/47/1 42/49/1 157/48/1
f 42/49/1 60/45/1 64/50/1
f 101/51/1 41/52/1 26/53/1
f 112/54/1 14/55/1 31/56/1
f 40/41/1 66/11/1 10/10/1
f 166/8/1 39/57/1 156/58/1
f 98/59/1 87/60/1 58/61/1
f 159/62/1 36/63/1 155/64/1
f 33/65/1 34/66/1 135/67/1
f 118/68/1 71/7/1 57/69/1
f 26/53/1 41/52/1 121/70/1
f 124/71/1 150/23/1 142/16/1
f 80/24/1 67/72/1 84/22/1
f 20/73/1 7/5/1 6/4/1
f 139/74/1 76/75/1 149/76/1
f 119/77/1 164/78/1 163/79/1
f 18/80/1 92/81/1 80/24/1
f 116/14/1 82/82/1 126/83/1
f 66/11/1 144/42/1 165/12/1
f 146/84/1 89/85/1 74/35/1
f 1/86/1 2/47/1 68/46/1
f 2/47/1 3/43/1 60/45/1
f 42/49/1 2/47/1 60/45/1
f 4/87/1 117/88/1 89/85/1
f 89/85/1 117/88/1 127/89/1
f 98/59/1 127/89/1 105/90/1
f 98/59/1 89/85/1 127/89/1
f 4/87/1 141/91/1 101/51/1
f 89/85/1 141/91/1 4/87/1
f 147/3/1 104/2/1 108/92/1
f 104/2/1 112/54/1 108/92/1
f 70/93/1 147/3/1 108/92/1
f 114/94/1 86/6/1 40/41/1
f 86/6/1 7/5/1 156/58/1
f 144/42/1 86/6/1 39/57/1
f 86/6/1 156/58/1 39/57/1
f 74/35/1 89/85/1 98/59/1
f 58/61/1 159/62/1 38/95/1
f 72/96/1 58/61/1 38/95/1
f 58/61/1 138/97/1 159/62/1
f 9/25/1 24/38/1 77/98/1
f 36/63/1 9/25/1 77/98/1
f 148/99/1 83/9/1 53/37/1
f 166/8/1 35/33/1 83/9/1
f 125/100/1 149/76/1 153/34/1
f 35/33/1 125/100/1 153/34/1
f 69/101/1 34/66/1 33/65/1
f 69/101/1 165/12/1 34/66/1
f 165/12/1 144/42/1 118/68/1
f 165/12/1 118/68/1 34/66/1
f 57/69/1 148/99/1 120/102/1
f 152/103/1 31/56/1 130/104/1
f 12/105/1 152/103/1 130/104/1
f 13/30/1 12/105/1 129/31/1
f 15/106/1 100/107/1 29/108/1
f 100/107/1 30/109/1 29/108/1
f 15/106/1 29/108/1 131/110/1
f 82/82/1 26/53/1 126/83/1
f 161/15/1 116/14/1 126/83/1
f 94/17/1 70/93/1 121/70/1
f 9/25/1 25/27/1 24/38/1
f 9/25/1 143/111/1 78/26/1
f 75/28/1 23/112/1 54/113/1
f 124/71/1 17/114/1 21/21/1
f 17/114/1 151/115/1 21/21/1
f 80/24/1 92/81/1 67/72/1
f 163/79/1 164/78/1 90/19/1
f 119/77/1 163/79/1 20/73/1
f 90/19/1 164/78/1 97/116/1
f 124/71/1 76/75/1 56/117/1
f 16/118/1 124/71/1 56/117/1
f 139/74/1 149/76/1 125/100/1
f 139/74/1 56/117/1 76/75/1
f 149/76/1 141/91/1 146/84/1
f 149/76/1 76/75/1 141/91/1
f 59/119/1 162/20/1 139/74/1
f 90/19/1 97/116/1 107/120/1
f 162/20/1 90/19/1 107/120/1
f 162/20/1 107/120/1 16/118/1
f 162/20/1 16/118/1 56/117/1
f 59/119/1 139/74/1 156/58/1
f 156/58/1 139/74/1 125/100/1
f 7/5/1 59/119/1 156/58/1
f 150/23/1 123/121/1 94/17/1
f 150/23/1 84/22/1 123/121/1
f 150/23/1 94/17/1 142/16/1
f 84/22/1 95/122/1 147/3/1
f 84/22/1 67/72/1 95/122/1
f 67/72/1 5/1/1 95/122/1
f 84/22/1 147/3/1 123/121/1
f 21/21/1 151/115/1 80/24/1
f 109/123/1 18/80/1 80/24/1
f 141/91/1 124/71/1 142/16/1
f 142/16/1 41/52/1 141/91/1
f 22/124/1 23/112/1 52/125/1
f 25/27/1 22/124/1 62/126/1
f 22/124/1 52/125/1 62/126/1
f 23/112/1 140/127/1 51/128/1
f 23/112/1 88/29/1 140/127/1
f 23/112/1 51/128/1 52/125/1
f 78/26/1 54/113/1 22/124/1
f 22/124/1 25/27/1 78/26/1
f 54/113/1 143/111/1 115/129/1
f 54/113/1 78/26/1 143/111/1
f 115/129/1 99/13/1 75/28/1
f 115/129/1 75/28/1 54/113/1
f 93/39/1 79/130/1 128/131/1
f 79/130/1 50/132/1 128/131/1
f 145/133/1 93/39/1 128/131/1
f 79/130/1 24/38/1 25/27/1
f 25/27/1 62/126/1 50/132/1
f 79/130/1 25/27/1 50/132/1
f 70/93/1 94/17/1 123/121/1
f 95/122/1 5/1/1 147/3/1
f 123/121/1 147/3/1 70/93/1
f 11/134/1 126/83/1 96/135/1
f 96/135/1 152/103/1 11/134/1
f 96/135/1 126/83/1 26/53/1
f 96/135/1 26/53/1 121/70/1
f 121/70/1 41/52/1 63/18/1
f 122/136/1 161/15/1 126/83/1
f 27/137/1 161/15/1 122/136/1
f 122/136/1 11/134/1 13/30/1
f 122/136/1 126/83/1 11/134/1
f 28/138/1 49/139/1 47/140/1
f 28/138/1 132/141/1 49/139/1
f 28/138/1 131/110/1 132/141/1
f 131/110/1 29/108/1 132/141/1
f 132/141/1 133/142/1 48/143/1
f 132/141/1 29/108/1 133/142/1
f 29/108/1 30/109/1 133/142/1
f 132/141/1 48/143/1 49/139/1
f 129/31/1 131/110/1 28/138/1
f 136/32/1 129/31/1 28/138/1
f 136/32/1 28/138/1 47/140/1
f 129/31/1 12/105/1 130/104/1
f 129/31/1 130/104/1 131/110/1
f 130/104/1 15/106/1 131/110/1
f 88/29/1 85/144/1 113/145/1
f 88/29/1 55/146/1 85/144/1
f 88/29/1 113/145/1 140/127/1
f 55/146/1 13/30/1 136/32/1
f 55/146/1 136/32/1 47/140/1
f 55/146/1 47/140/1 85/144/1
f 103/147/1 81/148/1 46/149/1
f 120/102/1 103/147/1 46/149/1
f 103/147/1 148/99/1 32/150/1
f 103/147/1 32/150/1 61/151/1
f 103/147/1 61/151/1 81/148/1
f 61/151/1 106/152/1 81/148/1
f 160/153/1 57/69/1 120/102/1
f 160/153/1 118/68/1 57/69/1
f 135/67/1 110/154/1 137/155/1
f 135/67/1 34/66/1 110/154/1
f 34/66/1 118/68/1 110/154/1
f 120/102/1 46/149/1 45/156/1
f 110/154/1 120/102/1 45/156/1
f 110/154/1 45/156/1 137/155/1
f 8/157/1 74/35/1 98/59/1
f 74/35/1 153/34/1 146/84/1
f 134/36/1 35/33/1 74/35/1
f 53/37/1 134/36/1 8/157/1
f 134/36/1 83/9/1 35/33/1
f 61/151/1 32/150/1 72/96/1
f 32/150/1 53/37/1 72/96/1
f 53/37/1 58/61/1 72/96/1
f 53/37/1 8/157/1 58/61/1
f 37/158/1 154/40/1 91/159/1
f 154/40/1 44/160/1 91/159/1
f 37/158/1 91/159/1 43/161/1
f 77/98/1 24/38/1 154/40/1
f 37/158/1 77/98/1 154/40/1
f 93/39/1 145/133/1 44/160/1
f 154/40/1 93/39/1 44/160/1
f 155/64/1 36/63/1 37/158/1
f 36/63/1 159/62/1 138/97/1
f 61/151/1 38/95/1 73/162/1
f 61/151/1 73/162/1 106/152/1
f 38/95/1 159/62/1 155/64/1
f 155/64/1 37/158/1 43/161/1
f 38/95/1 155/64/1 73/162/1
f 155/64/1 43/161/1 73/162/1
f 58/61/1 87/60/1 138/97/1
f 8/157/1 98/59/1 58/61/1
f 98/59/1 105/90/1 87/60/1
f 87/60/1 105/90/1 111/163/1
f 87/60/1 111/163/1 138/97/1
f 156/58/1 125/100/1 166/8/1
f 102/164/1 166/8/1 71/7/1
f 144/42/1 102/164/1 118/68/1
f 31/56/1 70/93/1 108/92/1
f 116/14/1 117/88/1 82/82/1
f 99/13/1 117/88/1 116/14/1
f 101/51/1 141/91/1 41/52/1
f 82/82/1 4/87/1 101/51/1
f 82/82/1 101/51/1 26/53/1
f 41/52/1 142/16/1 63/18/1
f 105/90/1 99/13/1 143/111/1
f 99/13/1 115/129/1 143/111/1
f 111/163/1 105/90/1 143/111/1
f 99/13/1 105/90/1 127/89/1
f 158/165/1 64/50/1 151/115/1
f 65/44/1 18/80/1 109/123/1
f 64/50/1 60/45/1 109/123/1
f 60/45/1 65/44/1 109/123/1
f 64/50/1 109/123/1 151/115/1
f 157/48/1 97/116/1 164/78/1
f 19/166/1 157/48/1 164/78/1
f 157/48/1 42/49/1 158/165/1
f 157/48/1 158/165/1 97/116/1
f 158/165/1 16/118/1 107/120/1
f 158/165/1 151/115/1 16/118/1
f 97/116/1 158/165/1 107/120/1
f 68/46/1 157/48/1 19/166/1
f 158/165/1 42/49/1 64/50/1
f 117/88/1 99/13/1 127/89/1
f 117/88/1 4/87/1 82/82/1
f 108/92/1 112/54/1 31/56/1
f 70/93/1 31/56/1 152/103/1
f 39/57/1 102/164/1 144/42/1
f 40/41/1 144/42/1 66/11/1
f 102/164/1 39/57/1 166/8/1
f 72/96/1 38/95/1 61/151/1
f 138/97/1 111/163/1 36/63/1
f 36/63/1 77/98/1 37/158/1
f 148/99/1 53/37/1 32/150/1
f 166/8/1 125/100/1 35/33/1
f 153/34/1 149/76/1 146/84/1
f 134/36/1 74/35/1 8/157/1
f 118/68/1 102/164/1 71/7/1
f 110/154/1 160/153/1 120/102/1
f 110/154/1 118/68/1 160/153/1
f 120/102/1 148/99/1 103/147/1
f 27/137/1 122/136/1 55/146/1
f 122/136/1 13/30/1 55/146/1
f 27/137/1 55/146/1 88/29/1
f 130/104/1 31/56/1 15/106/1
f 88/29/1 161/15/1 27/137/1
f 96/135/1 121/70/1 152/103/1
f 121/70/1 70/93/1 152/103/1
f 24/38/1 79/130/1 93/39/1
f 75/28/1 88/29/1 23/112/1
f 54/113/1 23/112/1 22/124/1
f 76/75/1 124/71/1 141/91/1
f 151/115/1 109/123/1 80/24/1
f 124/71/1 21/21/1 150/23/1
f 92/81/1 5/1/1 67/72/1
f 7/5/1 162/20/1 59/119/1
f 163/79/1 90/19/1 7/5/1
f 20/73/1 163/79/1 7/5/1
f 162/20/1 56/117/1 139/74/1
f 19/166/1 164/78/1 119/77/1
f 16/118/1 151/115/1 17/114/1
f 16/118/1 17/114/1 124/71/1
f 99/13/1 161/15/1 75/28/1
f 111/163/1 143/111/1 9/25/1
f 63/18/1 94/17/1 121/70/1
f 31/56/1 14/55/1 15/106/1
f 14/55/1 100/107/1 15/106/1
f 11/134/1 152/103/1 12/105/1
f 11/134/1 12/105/1 13/30/1
f 71/7/1 83/9/1 57/69/1
f 83/9/1 148/99/1 57/69/1
f 10/10/1 165/12/1 69/101/1
f 111/163/1 9/25/1 36/63/1
f 6/4/1 86/6/1 114/94/1
f 146/84/1 141/91/1 89/85/1
f 1/86/1 3/43/1 2/47/1
